<svg viewBox="0 -47 512.006 512" xmlns="http://www.w3.org/2000/svg"><path d="m103.28125 289.902344c-1.859375 1.859375-2.929688 4.4375-2.929688 7.066406 0 2.632812 1.070313 5.210938 2.929688 7.070312 1.859375 1.859376 4.4375 2.929688 7.070312 2.929688 2.636719 0 5.207032-1.066406 7.078126-2.929688 1.859374-1.859374 2.921874-4.4375 2.921874-7.070312 0-2.628906-1.0625-5.207031-2.921874-7.066406-1.871094-1.863282-4.441407-2.933594-7.078126-2.933594-2.632812.003906-5.203124 1.070312-7.070312 2.933594zm0 0"/><path d="m507.199219 32.6875-51.3125-31.226562c-3.085938-1.878907-6.949219-1.945313-10.097657-.175782-3.148437 1.769532-5.101562 5.101563-5.101562 8.71875l.03125 173.921875c0 3.984375-3.242188 7.222657-7.222656 7.222657h-8.621094c2.742188-5.199219 4.300781-11.113282 4.300781-17.386719v-2.109375c0-20.617188-16.769531-37.386719-37.382812-37.386719s-37.386719 16.769531-37.386719 37.386719v2.109375c0 6.71875 1.789062 13.023437 4.90625 18.476562-11.90625 2.425781-22.402344 8.765625-30.097656 17.601563 3.289062-7.84375 5.121094-16.445313 5.121094-25.46875v-19.296875c0-19.46875-13.464844-35.84375-31.566407-40.320313v-46.679687l46.507813-28.300781c2.980468-1.816407 4.800781-5.054688 4.800781-8.542969 0-3.492188-1.820313-6.730469-4.800781-8.542969l-51.3125-31.226562c-3.085938-1.878907-6.949219-1.945313-10.097656-.175782-3.152344 1.769532-5.101563 5.101563-5.101563 8.71875l.027344 173.921875c0 3.984375-3.238281 7.222657-7.21875 7.222657h-8.625c2.742187-5.199219 4.304687-11.113282 4.304687-17.386719v-2.109375c0-20.617188-16.773437-37.386719-37.386718-37.386719-20.613282 0-37.386719 16.769531-37.386719 37.386719v2.109375c0 6.71875 1.792969 13.023437 4.90625 18.476562-11.90625 2.425781-22.398438 8.765625-30.097657 17.601563 3.289063-7.84375 5.121094-16.445313 5.121094-25.46875v-19.296875c0-19.46875-13.464844-35.84375-31.566406-40.320313v-46.679687l46.511719-28.300781c2.980469-1.816407 4.800781-5.054688 4.800781-8.542969 0-3.492188-1.820312-6.730469-4.800781-8.542969l-51.3125-31.226562c-3.085938-1.878907-6.949219-1.945313-10.097657-.175782-3.152343 1.769532-5.101562 5.101563-5.101562 8.71875l.027344 173.921875c0 3.984375-3.238282 7.222657-7.21875 7.222657h-8.625c2.742187-5.199219 4.304687-11.113282 4.304687-17.386719v-2.109375c0-20.617188-16.773437-37.386719-37.386719-37.386719-20.613281 0-37.386718 16.769531-37.386718 37.386719v2.109375c0 6.71875 1.792968 13.023437 4.90625 18.476562-24.769532 5.042969-43.464844 26.996094-43.464844 53.230469v35.8125c0 19.457031 13.449219 35.828125 31.539062 40.316406v69.140625c0 15 12.203126 27.203125 27.203126 27.203125s27.203124-12.203125 27.203124-27.203125v-2.023437c2.296876.628906 4.710938.976562 7.207032.976562 15 0 27.203125-12.203125 27.203125-27.203125v-30.015625c0-5.523437-4.476563-10-10-10-5.523438 0-10 4.476563-10 10v30.011719c0 3.972656-3.230469 7.207031-7.203125 7.207031s-7.207032-3.234375-7.207032-7.207031v-39.253906c0-5.523438-4.476562-10-10-10-5.519531 0-10 4.476562-10 10v67.507812c0 3.972657-3.230468 7.203125-7.203124 7.203125-3.972657 0-7.203126-3.230468-7.203126-7.203125v-138.46875c0-5.519531-4.476562-10-10-10-5.523437 0-10 4.480469-10 10v48.074219c-6.851562-3.609375-11.539062-10.792969-11.539062-19.0625v-35.8125c0-18.925781 15.398438-34.320312 34.324219-34.320312h63.328125c15.007812 0 27.21875-12.214844 27.21875-27.222657v-37.925781c6.855468 3.605469 11.539062 10.804688 11.539062 19.074219v19.296875c0 25.394531-20.660156 46.058594-46.054687 46.058594-5.523438 0-10 4.476562-10 10v21.042968c0 5.519532 4.476562 10 10 10 5.523437 0 10-4.480468 10-10v-11.800781c16.511719-2.515625 31.023437-11.179687 41.148437-23.5625-2.304687 6.019531-3.582031 12.542969-3.582031 19.359375v35.8125c0 19.457031 13.449219 35.828125 31.542969 40.316406v69.140625c0 15 12.203125 27.203125 27.203125 27.203125s27.203125-12.203125 27.203125-27.203125v-2.023437c2.296875.628906 4.710937.976562 7.203125.976562 15 0 27.203125-12.203125 27.203125-27.203125v-112.816406c16.511718-2.515625 31.027344-11.179687 41.148437-23.5625-2.304687 6.019531-3.578125 12.542969-3.578125 19.359375v35.8125c0 19.457031 13.449219 35.828125 31.539063 40.316406v69.140625c0 15 12.207031 27.203125 27.207031 27.203125s27.203125-12.203125 27.203125-27.203125v-2.023437c2.296875.628906 4.710937.976562 7.203125.976562 15 0 27.203125-12.203125 27.203125-27.203125v-112.816406c31.695313-4.832031 56.058594-32.273437 56.058594-65.300781v-19.296875c0-19.46875-13.464844-35.84375-31.566407-40.320313v-46.679687l46.507813-28.304688c2.984375-1.8125 4.804687-5.050781 4.804687-8.542969 0-3.488281-1.828124-6.726562-4.808593-8.539062zm-448.636719 138.960938c0-9.585938 7.796875-17.386719 17.382812-17.386719 9.585938 0 17.386719 7.800781 17.386719 17.386719v2.113281c0 9.585937-7.796875 17.386719-17.386719 17.386719-9.585937 0-17.382812-7.800782-17.382812-17.386719zm86.28125-116.984376v-26.871093l22.078125 13.4375zm157.921875 0v-26.871093l22.078125 13.4375zm-86.28125 116.984376c0-9.585938 7.796875-17.386719 17.382813-17.386719 9.585937 0 17.386718 7.800781 17.386718 17.386719v2.113281c0 9.585937-7.796875 17.386719-17.386718 17.386719-9.585938 0-17.382813-7.800782-17.382813-17.386719zm97.851563 12.722656c0 25.394531-20.664063 46.058594-46.058594 46.058594-5.523438 0-10 4.476562-10 10v122.054687c0 3.972656-3.230469 7.207031-7.207032 7.207031-3.972656 0-7.203124-3.234375-7.203124-7.207031v-39.253906c0-5.523438-4.476563-10-10-10-5.523438 0-10 4.476562-10 10v67.507812c0 3.972657-3.230469 7.203125-7.203126 7.203125-3.972656 0-7.203124-3.230468-7.203124-7.203125v-138.46875c0-5.519531-4.476563-10-10-10-5.523438 0-10 4.480469-10 10v48.074219c-6.851563-3.609375-11.539063-10.792969-11.539063-19.0625v-35.8125c0-18.925781 15.394531-34.320312 34.320313-34.320312h63.332031c15.007812 0 27.21875-12.214844 27.21875-27.222657v-37.925781c6.855469 3.605469 11.539062 10.804688 11.539062 19.074219v19.296875zm60.070312-12.722656c0-9.585938 7.796875-17.386719 17.382812-17.386719 9.589844 0 17.386719 7.800781 17.386719 17.386719v2.113281c0 9.585937-7.796875 17.386719-17.386719 17.386719-9.585937 0-17.382812-7.800782-17.382812-17.386719zm86.3125-25.648438c6.851562 3.609375 11.539062 10.804688 11.539062 19.074219v19.296875c0 25.394531-20.660156 46.058594-46.058593 46.058594-5.523438 0-10 4.476562-10 10v122.054687c0 3.972656-3.230469 7.207031-7.203125 7.207031s-7.207032-3.234375-7.207032-7.207031v-39.253906c0-5.523438-4.476562-10-10-10-5.519531 0-10 4.476562-10 10v67.507812c0 3.972657-3.230468 7.203125-7.203124 7.203125-3.972657 0-7.203126-3.230468-7.203126-7.203125v-138.46875c0-5.519531-4.476562-10-10-10-5.523437 0-10 4.480469-10 10v48.074219c-6.851562-3.609375-11.539062-10.792969-11.539062-19.0625v-35.8125c0-18.925781 15.394531-34.320312 34.320312-34.320312h63.332032c15.007812 0 27.21875-12.214844 27.21875-27.222657v-37.925781zm-.03125-91.335938v-26.871093l22.078125 13.4375zm0 0"/></svg>